<?xml version="1.0" encoding="UTF-8" standalone="no"?>
<!-- Created with Inkscape (http://www.inkscape.org/) -->

<svg
   width="684.86627mm"
   height="500.95404mm"
   viewBox="0 0 684.86627 500.95404"
   version="1.1"
   id="svg1"
   xml:space="preserve"
   xmlns="http://www.w3.org/2000/svg"
   xmlns:svg="http://www.w3.org/2000/svg"><defs
     id="defs1" /><g
     id="layer1"
     transform="translate(1197.6154,-20.974199)"><g
       id="group-R5"
       transform="matrix(0.26458333,0,0,0.26458333,-1355.1825,-228.54956)"><path
         id="path2"
         d="M 3964.1638,-137.82683 H 7743.6971 V 3641.7064 H 3964.1638 V -137.82683"
         style="fill:#ffffff;fill-opacity:1;fill-rule:evenodd;stroke:none;stroke-width:0.133333" /><path
         id="path3"
         d="m 10097,12578.1 c -216.49,-455.5 -251.28,-958.3 -104.14,-1508.3 71.94,-269.2 403.94,-1120.5 158.04,-1349.1 -88.3,-82.1 -360.31,-284.9 -592.36,-69.9 -375.98,348.4 -739.85,1261.7 -1518.63,1143.6 C 7125.38,10655.7 6854.28,9027 7825.2,8941.6 c 207.56,-18.2 418.46,116.6 539.39,251.8 159.62,178.6 158.71,725.4 -396.04,683 602.7,-148.6 194.94,-732.7 -130.69,-599.4 -172.51,70.5 -243.25,280.3 -226.92,480.3 18.62,228.1 150.52,443.6 373.94,425.7 541.4,-43.2 1111.08,-1241.9 1431.36,-1479.8 379.82,-282 875.86,-241.5 1291.46,49.5 39.6,24 77.4,49.2 113.4,75.5 0.6,453.3 224.3,772.7 515.3,1050.2 4.7,267.7 -47.7,571.3 -157.2,911 -154.2,911.5 240.5,1629.1 1184,2153 -174.2,278.3 -345.6,592.7 -291,994.2 l -96.1,-85.6 c -434.4,-387.6 -1065.4,-950.6 -1879.1,-1272.9 z m 8152.4,0 c 216.5,-455.5 251.3,-958.3 104.2,-1508.3 -72,-269.2 -403.9,-1120.5 -158,-1349.1 88.2,-82.1 360.3,-284.9 592.3,-69.9 376,348.4 739.9,1261.7 1518.7,1143.6 914.5,-138.7 1185.6,-1767.4 214.7,-1852.8 -207.6,-18.2 -418.5,116.6 -539.4,251.8 -159.7,178.6 -158.7,725.4 396,683 -602.7,-148.6 -194.9,-732.7 130.7,-599.4 172.5,70.5 243.2,280.3 226.9,480.3 -18.6,228.1 -150.5,443.6 -373.9,425.7 -541.4,-43.2 -1111.1,-1241.9 -1431.4,-1479.8 -379.8,-282 -875.9,-241.5 -1291.4,49.5 -39.7,24 -77.5,49.2 -113.4,75.5 -0.7,453.3 -224.4,772.7 -515.4,1050.2 -4.6,267.7 47.7,571.3 157.2,911 154.3,911.5 -240.5,1629.1 -1183.9,2153 174.1,278.3 345.5,592.7 291,994.2 l 96.1,-85.6 c 434.4,-387.6 1065.4,-950.6 1879,-1272.9 z m -4076.2,7783.2 c -1988,56.8 -2808.9,-2176.4 -1461.9,-3723 -387.9,-145.4 -372.6,-725.4 124.5,-812.8 -865.7,-430.7 -2860.53,260.7 -2364.5,1841.6 271,863.9 1008.7,1407.5 741.2,2370.1 -207.5,746.7 -890.5,1255.9 -1622.25,1235.6 -1649.05,-45.5 -1869.46,-1908.8 -772.2,-2039 837.59,-99.4 1284.05,1145.3 385.3,1114.8 658.44,-136.3 179.43,-907.8 -301.25,-820.6 -741.54,134.6 -439.57,1080.5 285.1,1193.4 525.18,81.9 1087.3,-309.2 1005.4,-983.9 -27.7,-228.8 -212.37,-517 -399.26,-878.3 -970.03,-1322.5 -876.62,-2569.7 279.76,-3741.5 475.4,-481.8 401,-517.7 -48.5,-998.1 -549.28,-587.1 -1130.72,-791.1 -1650.88,-683.9 -1160.18,239.2 -1293.38,1747.9 -2314.81,2207.8 C 5425,15929 4748.84,15629 4526.4,14985.6 c -156.43,-452.5 -9.29,-960.5 472.83,-1151.2 257.39,-101.8 602.73,-72.7 778.12,215.8 226.91,373.1 -115.2,801.6 -427.03,736.7 -90.11,-18.7 -170.34,-78.3 -250.54,-166.8 208.28,84.6 356.23,86.7 443.83,6.2 98.25,-90.3 115.53,-297 32.09,-433.8 -140.52,-230.4 -444.68,-165.5 -604.93,63.7 -75.46,107.9 -119.02,252.2 -98.59,419.4 27.53,225 153.74,376.5 359.36,460.3 844.31,343.9 1296.16,-1165.6 1760.75,-1756.4 443.5,-564.1 820.01,-853.8 1301.31,-945 536.36,-101.7 1251.83,56.1 1748.7,251.5 799.5,314.4 1424.3,871.9 1853.7,1255 84.5,75.3 161.4,144 233.7,205.3 l 152.7,129.5 -56.1,-192.1 c -140.3,-480.6 89.7,-842.7 291.1,-1159.7 104.4,-164.4 201.5,-317.4 242.8,-474.4 180.8,-510.3 100,-1048.4 -242.4,-1614.3 -513.2,-847.9 -2017.8,-1140.1 -1443.7,-2644.2 230.6,-604.1 717.4,-982.1 1261.7,-1087.8 497.7,-96.7 1053.4,29.2 1302,519.3 185.6,365.8 128.8,824.8 -259.3,1106.3 -666.3,483.2 -1592.7,-597.5 -754.3,-858.7 -580.3,435.6 344.6,1009 680.4,510.9 215.6,-319.8 128.2,-572.1 -64.3,-702.2 -244.3,-165.2 -666,-152.1 -937.5,-36.9 -442.6,188 -493.5,866.3 -315.7,1191 315.8,576.9 1343,863.7 1824.9,1773.6 321.3,606.6 351,1324.9 89.1,2154.8 -88.1,279.3 89.6,420.3 270.2,423.3 h 1 v 0 h 0.9 1 v 0 h 1 c 180.5,-3 358.3,-144 270.1,-423.3 -261.8,-829.9 -232.2,-1548.2 89.1,-2154.8 482,-909.9 1509.1,-1196.7 1825,-1773.6 177.7,-324.7 126.9,-1003 -315.8,-1191 -271.4,-115.2 -693.1,-128.3 -937.5,36.9 -192.5,130.1 -279.8,382.4 -64.3,702.2 335.8,498.1 1260.7,-75.3 680.4,-510.9 838.4,261.2 -87.9,1341.9 -754.2,858.7 -388.1,-281.5 -444.9,-740.5 -259.3,-1106.3 248.6,-490.1 804.2,-616 1302,-519.3 544.2,105.7 1031.1,483.7 1261.7,1087.8 574.1,1504.1 -930.6,1796.3 -1443.7,2644.2 -342.5,565.9 -423.3,1104 -242.5,1614.3 41.3,157 138.5,310 242.9,474.4 201.3,317 431.3,679.1 291,1159.7 l -56.1,192.1 152.7,-129.5 c 72.4,-61.3 149.3,-130 233.8,-205.3 429.3,-383.1 1054.2,-940.6 1853.7,-1255 496.8,-195.4 1212.3,-353.2 1748.7,-251.5 481.3,91.2 857.8,380.9 1301.3,945 464.6,590.8 916.4,2100.3 1760.7,1756.4 205.6,-83.8 331.8,-235.3 359.4,-460.3 20.4,-167.2 -23.2,-311.5 -98.6,-419.4 -160.3,-229.2 -464.4,-294.1 -604.9,-63.7 -83.5,136.8 -66.2,343.5 32,433.8 87.6,80.5 235.6,78.4 443.9,-6.2 -80.2,88.5 -160.4,148.1 -250.6,166.8 -311.8,64.9 -653.9,-363.6 -427,-736.7 175.4,-288.5 520.7,-317.6 778.1,-215.8 482.1,190.7 629.3,698.7 472.9,1151.2 -222.5,643.4 -898.6,943.4 -1532.6,657.9 -1021.4,-459.9 -1154.6,-1968.6 -2314.8,-2207.8 -524.3,-108 -1106.8,103.9 -1664.2,698.2 -474.7,506.1 -436.9,557.8 0.1,1019.8 1110.2,1173.6 1204.6,2396.5 244.5,3705.5 -186.9,361.3 -371.5,649.5 -399.3,878.3 -81.8,674.7 480.3,1065.8 1005.5,983.9 724.6,-112.9 1026.6,-1058.8 285.1,-1193.4 -480.7,-87.2 -959.7,684.3 -301.3,820.6 -898.8,30.5 -452.3,-1214.2 385.3,-1114.8 1097.3,130.2 876.9,1993.5 -772.2,2039 -731.7,20.3 -1414.8,-488.9 -1622.3,-1235.6 -267.4,-962.6 470.3,-1506.2 741.3,-2370.1 496,-1580.9 -1498.9,-2272.3 -2364.6,-1841.6 542.4,98.7 531.3,739.1 124.5,812.8 1346.9,1546.5 526.8,3779 -1461.9,3723 v 0"
         style="fill:#000000;fill-opacity:1;fill-rule:evenodd;stroke:none"
         transform="matrix(0.13333333,0,0,-0.13333333,0,3779.5333)" /></g></g></svg>
