<?xml version="1.0" encoding="UTF-8" standalone="no"?>
<!-- Created with Inkscape (http://www.inkscape.org/) -->

<svg
   width="691.63208mm"
   height="446.2663mm"
   viewBox="0 0 691.63208 446.2663"
   version="1.1"
   id="svg1"
   xml:space="preserve"
   xmlns="http://www.w3.org/2000/svg"
   xmlns:svg="http://www.w3.org/2000/svg"><defs
     id="defs1" /><g
     id="layer1"
     transform="translate(537.94123,106.57592)"><g
       id="group-R5"
       transform="matrix(0.26458333,0,0,0.26458333,-692.12557,-383.44298)"><path
         id="path2"
         d="M 3819.7737,1424.2112 H 7599.307 V 5203.7445 H 3819.7737 V 1424.2112"
         style="fill:#ffffff;fill-opacity:1;fill-rule:evenodd;stroke:none;stroke-width:0.133333" /><path
         id="path3"
         d="m 9650.3,8744.9 c -1262.69,1522.2 -2141.51,4152.6 -2298.45,6096 357.38,161.3 599.37,384.8 725.84,670.6 -174.84,-219.6 -421.21,-397.9 -720.33,-491.2 -1364.44,-425.4 -2501.41,1202.7 -1299.01,2438.4 51.26,52.7 103.35,100.4 155.93,143.4 -158.81,95.7 -319.18,220.5 -476.21,366.1 -329.28,305.5 -650.47,708 -912.26,1125.6 -7.71,-0.4 -15.48,-0.7 -23.29,-0.7 -238.55,0 -431.94,193.4 -431.94,432 0,238.5 193.39,431.9 431.94,431.9 238.55,0 431.94,-193.4 431.94,-431.9 0,-103.4 -36.33,-198.3 -96.91,-272.6 242.4,-382.1 536.83,-748.9 838.36,-1028.6 159.9,-148.4 319.72,-270.6 471.63,-355 -84.08,128.5 -161.64,273.2 -232,429.5 -179.97,399.7 -316.75,880.1 -396.23,1353.1 -179.91,52.2 -311.43,218.2 -311.43,414.9 0,238.5 193.38,431.9 431.93,431.9 238.55,0 431.95,-193.4 431.95,-431.9 0,-155.7 -82.38,-292.1 -205.92,-368.1 74.99,-441.7 202.04,-887.3 368.18,-1256.4 92.41,-205.2 195.45,-384.8 306.34,-523.6 312.89,75.5 600.63,37.4 796.11,-30 648.32,-223.7 791.13,-1126.6 1073.22,-1801.4 952.23,-2277.4 3223.71,-5335.2 5229.51,-5999.5 -1140,543.3 -2211.5,1925.4 -2394.4,2702.9 507.8,3045.6 3441.6,4877.8 6023.9,4877.8 2837.9,0 5138.6,-2125.5 5138.6,-4855.4 0,-2286.4 -1548.6,-3718.1 -3862.9,-3718.1 -1040,0 -2019.8,389 -2729.1,1038.4 -676.4,619.1 -1106.8,1476.2 -1106.8,2458 0,827.9 337,1608.6 899.3,2174.4 539.1,542.5 1286.1,887.6 2142.6,887.6 722.6,0 1403,-270 1895.3,-720.7 468,-428.3 765.8,-1021.3 765.8,-1700.4 0,-571.8 -232.6,-1110.8 -620.9,-1501.5 -371.9,-374.3 -887.5,-612.4 -1478.7,-612.4 -498.3,0 -967,185.8 -1305.9,496 -320.6,293.4 -524.6,699.6 -524.6,1164.7 0,390.7 158.9,758.9 424,1025.7 253.8,255.4 605.7,417.8 1009.4,417.8 48.2,0 91.7,-2.1 130.7,-6.1 285,-29.4 496.4,-156.7 635.8,-332.5 v -0.7 c 141.7,-178.8 212.2,-409.4 212.2,-640.9 0,-41.5 -1.9,-80.2 -5.5,-115.6 -38,-368.7 -265.1,-588.3 -524.1,-667.6 -105.5,-32.3 -216.9,-41.8 -323.6,-29.1 -103.3,12.2 -200.4,45.4 -281.2,98.9 -166.6,110.2 -267.2,316.8 -208.8,617.4 18.1,94.7 -44,186.2 -138.7,204.3 -94.8,18.1 -186.3,-44 -204.4,-138.7 -89.7,-462 81.3,-790.2 359.1,-974.2 127.7,-84.5 277.2,-136.4 433,-154.9 152.3,-18.1 312.6,-4.1 465.7,42.7 381.6,116.9 715.5,435 770.2,965.7 5.4,53 8.2,103.5 8.2,151.1 0,306.4 -95.9,614.9 -288.7,858.2 l -0.4,-0.3 c -195,246 -486.1,423.5 -873.2,463.4 -56.5,5.8 -112,8.9 -166.3,8.9 -501.7,0 -940,-202.9 -1256.8,-521.7 -329.2,-331.3 -526.5,-787.9 -526.5,-1271.8 0,-568.3 248.6,-1064 639.4,-1421.7 402.3,-368.3 955.6,-588.9 1541,-588.9 689.2,0 1291.1,278.5 1726.1,716.2 452.4,455.2 723.4,1082.6 723.4,1747.6 0,782.3 -342.4,1464.8 -880.5,1957.4 -555.9,508.8 -1320.8,813.6 -2130.5,813.6 -954.5,0 -1787.9,-385.5 -2390,-991.4 -626.4,-630.4 -1001.8,-1499.4 -1001.8,-2420.5 0,-1085 475,-2031.6 1221.5,-2715 772.9,-707.5 1837.2,-1131.4 2964.3,-1131.4 965.7,0 1850.6,287.8 2587,775.3 1350.5,-364 2198.8,-906.5 2544.5,-1627.8 -9331.7,-30.4 -15284.22,-45 -15342.54,-43.8 139.64,606.3 606.2,784.9 1016.95,896.6 h -0.01"
         style="fill:#000000;fill-opacity:1;fill-rule:evenodd;stroke:none"
         transform="matrix(0.13333333,0,0,-0.13333333,0,3779.5333)" /></g></g></svg>
