<?xml version="1.0" encoding="UTF-8" standalone="no"?>
<!-- Created with Inkscape (http://www.inkscape.org/) -->

<svg
   width="681.74194mm"
   height="415.59415mm"
   viewBox="0 0 681.74186 415.59409"
   version="1.1"
   id="svg1"
   xml:space="preserve"
   xmlns="http://www.w3.org/2000/svg"
   xmlns:svg="http://www.w3.org/2000/svg"><defs
     id="defs1" /><g
     id="layer1"
     transform="translate(217.34698,85.956653)"><path
       id="path3-0"
       d="m -28.069795,215.1223 c -9.328151,6.43467 -13.841943,12.44247 -13.541729,18.02342 2.272595,20.53519 6.404681,36.69947 12.395906,48.49283 1.008592,2.91748 3.150306,3.97934 7.405159,3.09387 3.249084,-0.67381 7.690556,-1.52048 9.881306,1.66863 8.8688343,0.24342 13.6842513,3.11503 14.4533069,8.61484 -3.8205836,-1.68275 -7.9233894,-1.1677 -12.3084175,1.54517 -2.1343054,3.29494 -5.3692784,5.04825 -9.7084454,5.26697 -2.871611,-4.86128 -8.045803,-6.75217 -15.521517,-5.67267 -9.160229,-4.18394 -13.736109,-12.99986 -13.725526,-26.45128 -1.384653,13.716 3.191933,23.0117 13.729054,27.88003 9.266414,-0.69144 14.604295,2.34597 16.018934,9.11578 -2.95275,-3.15383 -6.950076,-2.86808 -11.989859,0.85725 -3.850923,4.74486 -10.122254,4.78367 -14.862176,2.94922 -6.210301,-2.40242 -10.822518,-8.15975 -14.262454,-12.07205 -1.963208,-2.23309 -4.10457,-4.75898 -6.581422,-7.66939 -11.551357,-12.48481 -13.309954,-25.63989 -5.276851,-39.46173 1.022703,-4.43442 2.51072,-9.14047 4.464756,-14.12522 -2.327275,3.94053 -3.86715,6.858 -4.620684,8.74536 -1.208616,2.45533 -2.771775,3.91583 -4.69018,4.38503 1.301397,-2.67759 1.539875,-4.89303 0.714375,-6.64986 -0.780345,-3.10445 0.904169,-9.18987 5.054247,-18.25273 2.465211,-3.99344 1.529292,-9.03464 4.645731,-15.87147 2.048581,-4.49439 5.449006,-11.16542 14.130515,-13.88533 11.449756,-8.51959 19.384787,-16.98626 23.805798,-25.39648 9.930343,-11.75808 16.978843,-18.91242 21.1416213,-21.46653 C -20.61807,141.67043 -38.964632,128.92457 -55.956175,120.62371 -111.27949,107.16877 -233.16281,117.77327 -190.98329,228.56313 -250.98056,150.08771 -197.47934,77.958764 -140.82605,57.310679 -107.95386,41.9084 -82.232476,31.416789 -42.495938,20.547704 -7.2301523,-9.6359641 36.528406,-10.443825 68.983964,19.669288 64.200297,12.038704 54.184935,3.378009 49.119046,1.4483144 67.428214,-7.3499639 116.83827,-21.418743 140.86244,-22.074909 c 26.99456,-0.737306 60.35675,11.218334 77.27951,9.038167 15.47283,-1.993195 28.62439,-10.713862 39.45819,-26.162002 8.50195,-17.600084 21.55473,-28.987752 39.15128,-34.163002 10.26936,-3.01625 19.88961,-2.913944 30.52587,-2.592917 -0.50448,1.802695 -1.32645,6.36764 -1.38289,8.501945 0.36336,-3.023305 2.91041,-8.456084 4.94947,-10.837334 10.37167,-9.849556 19.95311,-10.152945 30.42356,-1.231194 25.75278,4.564944 37.211,-1.471084 58.34592,-0.119945 29.54867,1.894417 44.47469,14.17814 44.78161,36.858225 -1.59455,1.008944 -3.19264,1.972028 -4.78719,2.882194 l -2.29306,11.620501 -0.72319,-9.948334 -0.41275,0.22225 -3.70064,15.550446 -0.57503,-13.402029 c -0.33867,0.162278 -0.67733,0.3175 -1.016,0.47625 l -3.60539,15.790334 -0.67381,-13.931195 c -0.57502,0.236361 -1.15005,0.465667 -1.72861,0.687917 l -3.68653,12.975167 -3.03036,-10.671528 c -0.65616,0.197555 -1.3088,0.381 -1.96497,0.560917 l -1.90147,13.783028 -1.87325,-12.841112 c -0.75142,0.169334 -1.50283,0.328084 -2.25425,0.47625 l -3.93347,14.065251 -0.94898,-13.271501 c -0.9913,0.130528 -1.98614,0.243417 -2.97744,0.335139 l -5.83847,13.296196 -0.23989,-12.982224 c -1.32292,0.01411 -2.64584,-0.0035 -3.96875,-0.05997 l -5.82436,9.817806 -0.26459,-10.31875 c -0.74436,-0.09172 -1.49225,-0.194028 -2.23661,-0.306917 l -5.19994,8.117417 0.0953,-9.076973 c -0.85725,-0.1905 -1.71803,-0.398638 -2.57528,-0.620888 l -3.61245,9.697861 0.508,-10.562167 c -0.38452,-0.116417 -0.76905,-0.232833 -1.15358,-0.356306 -7.23194,-2.607028 -17.46956,3.658306 -22.03097,8.992306 -5.24581,6.134806 -9.7402,6.949723 -14.58384,4.095751 -10.25525,-6.046612 -16.85219,-8.791223 -25.61167,-10.911418 12.5342,6.455834 17.57539,29.9120301 22.40845,33.1505303 4.87539,3.2702502 12.9787,3.5524724 23.33272,2.4870835 11.88156,-2.4518058 21.6782,-1.0477501 29.38992,4.2156942 10.74914,5.468056 19.08175,6.392334 24.99784,2.77989 -5.43984,8.4455 -14.64028,11.253611 -27.59781,8.420806 -5.0165,-0.405695 -9.85308,-0.705556 -14.51681,-0.896056 1.01953,1.181806 2.10256,2.328333 3.24203,3.446639 l 2.33539,-1.87325 -1.1818,2.973917 c 0.28222,0.261055 0.56797,0.525639 0.86077,0.783167 l 4.9777,-3.35139 -1.11831,5.552723 5.50686,-4.568472 -1.70039,7.030861 4.74839,-5.7785 -0.44802,8.597195 6.8968,-9.359195 -1.61219,12.139084 7.25664,-9.853084 -1.97203,13.165667 6.26886,-7.344833 -1.70039,9.04875 6.26886,-8.152695 -1.16416,10.033001 6.8968,-9.496779 -0.98425,11.553473 5.91256,-9.313334 -2.33186,10.033001 -0.25753,0.409222 c 1.31586,0.352778 2.65642,0.694973 4.01461,1.026584 2.0955,1.855611 1.13947,5.319889 -2.86808,10.392834 -10.64684,11.214806 -24.98373,10.798528 -43.00714,-1.252362 -8.77006,-4.864805 -16.5982,-8.272639 -23.47737,-10.212917 -12.02972,0.963084 -25.17069,-1.785055 -39.42292,-8.244417 -11.50055,-9.045223 -18.43264,-16.989779 -20.79272,-23.833668 1.5875,10.403417 7.44361,19.184057 17.56128,26.345446 -4.01461,9.493251 -12.43895,16.301862 -25.26595,20.429362 -31.23494,14.739057 -56.21867,23.667863 -68.63292,24.549807 6.05367,0.557389 13.31031,0.243417 16.6617,-0.716139 -2.78342,8.364362 -7.02381,15.529281 -12.7247,21.505331 -0.64911,3.53131 -0.70908,6.51934 -0.17639,8.97114 11.27125,3.80295 18.40795,7.44361 21.40303,10.92553 2.93511,1.89442 7.02381,2.25425 12.26961,1.07244 3.77825,-3.96522 8.43845,-5.3975 13.97353,-4.29683 3.08681,-0.13053 5.715,1.60161 7.88106,5.19289 -2.30011,-1.11831 -4.95653,-1.2065 -7.97278,-0.26811 -0.85019,1.524 -3.00214,1.524 -6.44878,0 -1.7533,0.31044 -2.88572,0.75847 -3.4043,1.34408 9.48619,1.22061 14.62264,3.57717 15.4058,7.07673 0.39159,1.61572 0.12348,3.07975 -0.80786,4.38855 1.66511,3.92995 1.12889,7.12258 -1.61219,9.58497 -0.46567,-3.09739 -1.60161,-5.36575 -3.40078,-6.80861 -2.56117,-0.36336 -3.57717,-2.30364 -3.048,-5.82083 -2.54353,-2.19075 -6.17008,-2.96686 -10.8832,-2.32833 -3.95816,1.35466 -8.12094,1.0548 -12.49186,-0.89606 -16.30186,1.05128 -28.63144,-5.23522 -36.99581,-18.85245 -5.08352,1.38995 -9.74019,2.64231 -13.97705,3.76062 -3.37961,4.33211 -7.86342,8.22677 -12.48481,10.46338 -2.06022,-0.31044 -4.2545,-0.65263 -6.57578,-1.03011 5.29873,2.28248 9.62731,6.01134 12.98928,11.18659 2.87514,4.0393 6.45231,6.4523 10.7315,7.24605 0.47978,-0.62089 2.18017,-2.24719 5.09764,-4.87891 3.86645,-3.31964 7.55297,-3.683 11.06311,-1.09009 3.50661,-0.0847 5.87023,2.17664 7.08731,6.77686 -1.47108,-1.68275 -3.54542,-2.39888 -6.223,-2.14136 -1.63689,1.0407 -4.24039,1.24178 -7.81403,0.5962 -0.24342,1.34761 -0.68086,2.7305 -1.30528,4.14866 8.94292,1.22414 14.1217,3.73592 15.53987,7.54239 6.65691,3.78884 8.79475,7.29545 6.41702,10.52337 0.17992,-2.17312 -2.15194,-3.56306 -6.99205,-4.16278 -3.16795,1.11125 -6.79098,0.16228 -10.86203,-2.85397 -3.34786,-2.91395 -7.24606,-5.07295 -11.69106,-6.48053 -3.45369,-0.0917 -6.75216,-0.71261 -9.90247,-1.86267 -8.92881,-2.69875 -17.44486,-8.92528 -25.54817,-18.68664 -1.49225,-3.12914 -0.67733,-5.91961 2.44828,-8.37494 -5.73617,1.64747 -10.45633,3.3408 -14.15697,5.08352 -21.66409,9.82839 -40.71409,15.68098 -57.14295,17.55775 6.78039,-20.447 4.00403,-36.58305 -8.339669,-51.424413 9.697859,15.956133 11.835699,32.854193 3.951109,52.048833 -8.396109,17.06386 -17.169693,31.4572 -26.274888,42.85192 -12.922251,16.17134 -36.336114,33.44334 -37.232169,55.58367 4.09575,17.32492 12.121445,36.13503 29.594529,43.64214 14.097001,6.0572 21.311307,-2.12372 31.936978,7.58825 10.24819,0.55034 15.86441,5.09059 16.84161,13.6137 -5.04472,-4.0005 -10.20939,-4.06047 -15.49753,-0.17639 -5.602111,-10.2235 -13.423195,-15.44814 -23.466779,-15.67392 13.641917,5.16467 21.554723,12.02972 23.734889,20.60223 -0.0282,1.3723 0,2.83633 0.0882,4.38855 -3.259671,-4.02872 -6.127755,-5.73264 -8.597199,-5.10469 -1.354667,5.03061 -7.507112,6.37469 -18.450279,4.02872 -7.584723,-3.66183 -15.423446,-5.57389 -23.512641,-5.73264 -4.430889,-11.8357 -8.103306,-19.12056 -11.013723,-21.85458 4.46264,8.67833 7.598834,16.37947 9.401529,23.11047 0.289278,3.58422 -0.15875,6.0325 -1.340556,7.34483 -0.148166,1.93322 -1.192389,3.59128 -3.136194,4.97064 -1.192389,-3.57364 -3.358445,-5.85964 -6.49464,-6.85094 -2.151944,2.13077 -4.212167,2.84691 -6.180667,2.14841 -14.125223,-4.00755 -18.333862,-12.30489 -12.625917,-24.89905 3.496028,-11.67695 0.776111,-28.7267 -8.152695,-51.1422 C 7.1455431,242.06041 6.1013208,235.9115 9.0187932,230.44344 23.429766,209.96822 30.326572,194.89049 29.709211,185.21027 c 0.486834,-17.43781 2.515306,-29.85558 6.092473,-37.26039 -8.060973,-4.6355 -18.820696,-8.33261 -26.2748908,-9.56733 10.0859178,3.64419 18.3056398,6.90033 23.4385568,10.11413 -4.215694,10.02595 -7.034389,30.03551 -6.970889,41.56429 -6.223,3.937 -12.428362,8.02216 -21.3077792,11.36297 -15.8326678,5.1823 -26.7511408,9.75078 -32.7571828,13.69836 h 7.06e-4"
       style="fill:#000000;fill-opacity:1;fill-rule:evenodd;stroke:none;stroke-width:0.0352778" /></g></svg>
